<svg width="201" height="50" viewBox="0 0 201 50" fill="none" xmlns="http://www.w3.org/2000/svg">
    <g clip-path="url(#clip0_1_1103)">
        <path
            d="M67.125,28.75c0-0.829-0.671-1.5-1.5-1.5h-1.25V17.125c0-0.829-0.671-1.5-1.5-1.5H4.25c-0.829,0-1.5,0.671-1.5,1.5V27.25 H1.5c-0.829,0-1.5,0.671-1.5,1.5c0,0.829,0.671,1.5,1.5,1.5c-0.829,0-1.5,0.671-1.5,1.5c0,0.829,0.671,1.5,1.5,1.5 c-0.829,0-1.5,0.672-1.5,1.5c0,0.829,0.671,1.5,1.5,1.5c-0.829,0-1.5,0.672-1.5,1.5c0,0.829,0.671,1.5,1.5,1.5h1.25V50 c0,0.829,0.671,1.5,1.5,1.5h58.625c0.829,0,1.5-0.671,1.5-1.5V39.25h1.25c0.829,0,1.5-0.671,1.5-1.5c0-0.828-0.671-1.5-1.5-1.5 c0.829,0,1.5-0.671,1.5-1.5c0-0.828-0.671-1.5-1.5-1.5c0.829,0,1.5-0.671,1.5-1.5c0-0.829-0.671-1.5-1.5-1.5 C66.453,30.25,67.125,29.579,67.125,28.75z M61.375,48.5H5.75v-9.25H7c0.829,0,1.5-0.671,1.5-1.5c0-0.828-0.671-1.5-1.5-1.5h2.125 c0.829,0,1.5-0.671,1.5-1.5c0-0.828-0.671-1.5-1.5-1.5h1.125c0.829,0,1.5-0.671,1.5-1.5c0-0.829-0.671-1.5-1.5-1.5H9.125 c0.829,0,1.5-0.671,1.5-1.5c0-0.829-0.671-1.5-1.5-1.5H5.75v-8.625h55.625v8.625H58c-0.829,0-1.5,0.671-1.5,1.5 c0,0.829,0.671,1.5,1.5,1.5h-1.125c-0.829,0-1.5,0.671-1.5,1.5c0,0.829,0.671,1.5,1.5,1.5H58c-0.829,0-1.5,0.672-1.5,1.5 c0,0.829,0.671,1.5,1.5,1.5h2.125c-0.829,0-1.5,0.672-1.5,1.5c0,0.829,0.671,1.5,1.5,1.5h1.25V48.5z"
            fill="#7843E9"/>
    </g>
    <defs>
        <clipPath id="clip0_1_1103">
            <rect width="201" height="50" fill="white"/>
        </clipPath>
    </defs>
</svg>
